# xmcd
#
# Track frame offsets: 
#        180
#        27639
#        47759
#        70605
#        84698
#        97640
#        110852
#        137962
#        143565
#        161168
#        182563
#        200483
#
# Disc length: 2907 seconds
#
# Revision: 8
# Processed by: cddbd v1.5.1PL2 Copyright (c) Steve Scherf et al.
# Submitted via: ExactAudioCopy v0.95a5
#
DISCID=a80b590c
DTITLE=Dimitri van Toren - Onder dezelfde zon
DYEAR=1994
DGENRE=Folklore
TTITLE0=Tussen Kaboel en Sarajevo
TTITLE1=Ik wil naar jou
TTITLE2=Tijd genoeg
TTITLE3=Voor dat je weggaat
TTITLE4=Drink niet alleen
TTITLE5=Vier keer zeven
TTITLE6=Mandala 4
TTITLE7=Een Gelukkig Man
TTITLE8=Probeer dan niet te huilen
TTITLE9=Tot je weer terug valt
TTITLE10=Muzikant (Over Heimwee en Verlangen)
TTITLE11=Als Ik aan jou denk ( Maar in de verte...)
EXTD=
EXTT0=
EXTT1=
EXTT2=
EXTT3=
EXTT4=
EXTT5=
EXTT6=
EXTT7=
EXTT8=
EXTT9=
EXTT10=
EXTT11=
PLAYORDER=
